<svg xmlns="http://www.w3.org/2000/svg" width="256" height="256"><path fill-opacity=".016" d="M0 128.004v128.004l128.25-.254 128.25-.254.254-127.75L257.008 0H0v128.004m.485.496c0 70.4.119 99.053.265 63.672.146-35.38.146-92.98 0-128C.604 29.153.485 58.1.485 128.5" fill="#1976D2" fill-rule="evenodd"/><path fill-opacity=".542" d="M0 127.5V242l92.25-.06 92.25-.06 35.5-33.367 35.5-33.367.52 33.177c.286 18.247.588-18.573.671-81.823.083-63.25-.076-114.438-.353-113.75-.387.957-6.924 1.25-27.921 1.25H201v137.747l-26.511 23.679c-14.582 13.023-26.945 23.41-27.475 23.083-.53-.328-12.787-14.618-27.239-31.757L93.5 135.59l-.266 28.205L92.969 192H50.051l-.276-34.75c-.151-19.113-.156-48.588-.011-65.5L50.028 61H93.005l31.247 41.917c17.187 23.054 31.586 41.954 31.998 42 .904.1 1-119.19.102-126.667l-.631-5.25H0v114.5m.483 0c0 63.25.12 88.978.267 57.173.146-31.805.146-83.555 0-115C.603 38.228.483 64.25.483 127.5" fill="#1976D2" fill-rule="evenodd"/><path fill-opacity=".252" d="M.54 24.25C.93 30.438 1.691 36.4 2.231 37.5 3.274 39.626 45.051 82 46.103 82 47.108 82 49 71.115 49 65.333V60h43.758l31.621 42.17L156 144.34V13H-.169L.54 24.25m201.127-9.583c-.367.366-.68 31.529-.695 69.25l-.029 68.583-23.532 21c-12.943 11.55-25.025 22.237-26.85 23.749l-3.316 2.749-20.873-24.704c-11.479-13.587-21.997-25.902-23.372-27.365-1.375-1.464-3.283-3.622-4.24-4.795-.957-1.174-2.42-2.134-3.25-2.134-1.284 0-1.527 2.584-1.625 17.25-.138 20.806-.655 34.853-1.306 35.505-.264.264-2.527.71-5.03.992L83 195.26V242l50.25-.032 50.25-.031 36.201-33.719 36.201-33.718.049-80.25L256 14h-26.833c-14.759 0-27.134.3-27.5.667" fill="#1976D2" fill-rule="evenodd"/><path fill-opacity=".511" d="M46 13.941l-4.5.641 21.526 21.709C81.752 55.177 84.951 58 87.62 58c3.127 0 8.38 3.582 8.38 5.714 0 .633.877 1.43 1.949 1.77 1.074.341 1.722 1.21 1.443 1.936-.289.753.377 1.548 1.556 1.856 1.296.339 1.852 1.081 1.5 2-.358.931.222 1.666 1.596 2.025 1.187.311 1.891.995 1.565 1.522-.325.527.568 1.718 1.986 2.648 1.418.929 2.334 1.934 2.034 2.233-.299.299.449 1.373 1.664 2.387 1.214 1.013 1.934 1.857 1.6 1.876-1.497.082 38.676 42.033 40.251 42.033.471 0 .856-.9.856-2s.45-2 1-2c.654 0 1-18.833 1-54.5V13l-52.75.15c-29.013.083-54.775.439-57.25.791m156 69.443v68.383l-3.929 3.55c-4.294 3.88-6.822 7.683-5.106 7.683.569 0 .922.562.785 1.25-.138.688.313 1.138 1 1 .688-.137 1.25.275 1.25.917 0 .641.293.873.651.515.358-.358 1.292.13 2.074 1.084.95 1.157 1.208 1.235.775.234-.433-1.001-.175-.923.775.234.782.954 1.716 1.442 2.074 1.084.358-.358.651-.1.651.574 0 .674.403.977.895.673.493-.305 1.164.147 1.493 1.004.329.857 1.051 1.278 1.605.935.554-.342 1.007-.119 1.007.496s.45.84 1 .5c.55-.34 1-.115 1 .5s.403.869.895.565c.493-.305 1.164.147 1.493 1.004.329.857 1.051 1.278 1.605.935.554-.342 1.007-.07 1.007.604 0 .674.293.932.651.574.358-.358 1.292.13 2.074 1.084.95 1.157 1.208 1.235.775.234-.433-1.001-.175-.923.775.234.782.954 1.716 1.442 2.074 1.084.358-.358.651-.051.651.682 0 .733.293 1.04.651.682.358-.358 1.292.13 2.074 1.084.95 1.157 1.208 1.235.775.234-.433-1.001-.175-.923.775.234.782.954 1.716 1.442 2.074 1.084.358-.358.651-.1.651.574 0 .674.403.977.895.673.493-.305 1.164.147 1.493 1.004.329.857 1.051 1.278 1.605.935.554-.342 1.007-.221 1.007.27 0 1.116 3.044.938 5.018-.293.815-.509 2.115-1.02 2.889-1.137.774-.117 4.261-3.042 7.75-6.5l6.343-6.286V15h-54v68.384" fill="#1976D2" fill-rule="evenodd"/></svg>